<?xml version="1.0" standalone="no"?>
<!DOCTYPE svg PUBLIC "-//W3C//DTD SVG 20010904//EN"
 "http://www.w3.org/TR/2001/REC-SVG-20010904/DTD/svg10.dtd">
<svg version="1.0" xmlns="http://www.w3.org/2000/svg"
 width="128.000000pt" height="128.000000pt" viewBox="0 0 128.000000 128.000000"
 preserveAspectRatio="xMidYMid meet">
<metadata>
Created by potrace 1.14, written by Peter Selinger 2001-2017
</metadata>
<g transform="translate(0.000000,128.000000) scale(0.100000,-0.100000)"
fill="#000000" stroke="none">
<path d="M478 1268 c-7 -7 -39 -26 -71 -42 -70 -34 -127 -102 -152 -178 -10
-29 -28 -64 -41 -79 -31 -33 -32 -82 -1 -113 16 -16 24 -37 25 -67 4 -52 32
-121 72 -170 l28 -36 -55 -23 c-137 -57 -265 -242 -278 -401 -2 -30 2 -46 20
-67 22 -26 28 -27 133 -30 78 -3 117 0 134 9 33 19 68 20 75 3 7 -18 32 -18
39 0 7 17 59 15 76 -2 9 -9 77 -12 242 -12 l230 0 28 -27 c62 -59 134 -28 215
92 48 71 70 132 77 211 5 64 -4 84 -38 84 -26 0 -86 31 -144 76 l-44 34 -46
-41 c-46 -40 -47 -40 -63 -21 -21 27 -132 98 -164 106 l-26 7 26 31 c41 49 66
106 72 165 4 39 13 62 30 79 31 31 30 77 -1 109 -13 13 -32 49 -40 79 -22 76
-80 144 -154 184 -34 18 -64 37 -67 42 -9 15 -121 12 -137 -2z"/>
</g>
</svg>
